<svg xmlns="http://www.w3.org/2000/svg" xmlns:xlink="http://www.w3.org/1999/xlink" width="1080" zoomAndPan="magnify" viewBox="0 0 810 809.999993" height="1080" preserveAspectRatio="xMidYMid meet" version="1.0"><defs><clipPath id="id1"><path d="M 390 5 L 754 5 L 754 808 L 390 808 Z M 390 5 " clip-rule="nonzero"/></clipPath><clipPath id="id2"><path d="M -330.1875 -145.304688 L 888.738281 -320.835938 L 1077.417969 989.398438 L -141.507812 1164.929688 Z M -330.1875 -145.304688 " clip-rule="nonzero"/></clipPath><clipPath id="id3"><path d="M -330.1875 -145.304688 L 888.738281 -320.835938 L 1077.417969 989.398438 L -141.507812 1164.929688 Z M -330.1875 -145.304688 " clip-rule="nonzero"/></clipPath><clipPath id="id4"><path d="M 398 79 L 724 79 L 724 800 L 398 800 Z M 398 79 " clip-rule="nonzero"/></clipPath><clipPath id="id5"><path d="M -330.1875 -145.304688 L 888.738281 -320.835938 L 1077.417969 989.398438 L -141.507812 1164.929688 Z M -330.1875 -145.304688 " clip-rule="nonzero"/></clipPath><clipPath id="id6"><path d="M -330.1875 -145.304688 L 888.738281 -320.835938 L 1077.417969 989.398438 L -141.507812 1164.929688 Z M -330.1875 -145.304688 " clip-rule="nonzero"/></clipPath><clipPath id="id7"><path d="M 79 10 L 456 10 L 456 807 L 79 807 Z M 79 10 " clip-rule="nonzero"/></clipPath><clipPath id="id8"><path d="M -330.1875 -145.304688 L 888.738281 -320.835938 L 1077.417969 989.398438 L -141.507812 1164.929688 Z M -330.1875 -145.304688 " clip-rule="nonzero"/></clipPath><clipPath id="id9"><path d="M -330.1875 -145.304688 L 888.738281 -320.835938 L 1077.417969 989.398438 L -141.507812 1164.929688 Z M -330.1875 -145.304688 " clip-rule="nonzero"/></clipPath><clipPath id="id10"><path d="M 112 82 L 451 82 L 451 798 L 112 798 Z M 112 82 " clip-rule="nonzero"/></clipPath><clipPath id="id11"><path d="M -330.1875 -145.304688 L 888.738281 -320.835938 L 1077.417969 989.398438 L -141.507812 1164.929688 Z M -330.1875 -145.304688 " clip-rule="nonzero"/></clipPath><clipPath id="id12"><path d="M -330.1875 -145.304688 L 888.738281 -320.835938 L 1077.417969 989.398438 L -141.507812 1164.929688 Z M -330.1875 -145.304688 " clip-rule="nonzero"/></clipPath><clipPath id="id13"><path d="M 222 514 L 355 514 L 355 723 L 222 723 Z M 222 514 " clip-rule="nonzero"/></clipPath><clipPath id="id14"><path d="M -330.1875 -145.304688 L 888.738281 -320.835938 L 1077.417969 989.398438 L -141.507812 1164.929688 Z M -330.1875 -145.304688 " clip-rule="nonzero"/></clipPath><clipPath id="id15"><path d="M -330.1875 -145.304688 L 888.738281 -320.835938 L 1077.417969 989.398438 L -141.507812 1164.929688 Z M -330.1875 -145.304688 " clip-rule="nonzero"/></clipPath><clipPath id="id16"><path d="M 501 490 L 632 490 L 632 700 L 501 700 Z M 501 490 " clip-rule="nonzero"/></clipPath><clipPath id="id17"><path d="M -330.1875 -145.304688 L 888.738281 -320.835938 L 1077.417969 989.398438 L -141.507812 1164.929688 Z M -330.1875 -145.304688 " clip-rule="nonzero"/></clipPath><clipPath id="id18"><path d="M -330.1875 -145.304688 L 888.738281 -320.835938 L 1077.417969 989.398438 L -141.507812 1164.929688 Z M -330.1875 -145.304688 " clip-rule="nonzero"/></clipPath><clipPath id="id19"><path d="M 0 0 L 301 0 L 301 167 L 0 167 Z M 0 0 " clip-rule="nonzero"/></clipPath><clipPath id="id20"><path d="M -330.1875 -145.304688 L 888.738281 -320.835938 L 1077.417969 989.398438 L -141.507812 1164.929688 Z M -330.1875 -145.304688 " clip-rule="nonzero"/></clipPath><clipPath id="id21"><path d="M -330.1875 -145.304688 L 888.738281 -320.835938 L 1077.417969 989.398438 L -141.507812 1164.929688 Z M -330.1875 -145.304688 " clip-rule="nonzero"/></clipPath><clipPath id="id22"><path d="M 506 0 L 810 0 L 810 37 L 506 37 Z M 506 0 " clip-rule="nonzero"/></clipPath><clipPath id="id23"><path d="M -330.1875 -145.304688 L 888.738281 -320.835938 L 1077.417969 989.398438 L -141.507812 1164.929688 Z M -330.1875 -145.304688 " clip-rule="nonzero"/></clipPath><clipPath id="id24"><path d="M -330.1875 -145.304688 L 888.738281 -320.835938 L 1077.417969 989.398438 L -141.507812 1164.929688 Z M -330.1875 -145.304688 " clip-rule="nonzero"/></clipPath></defs><rect x="-81" width="972" fill="#ffffff" y="-80.999999" height="971.999992" fill-opacity="1"/><rect x="-81" width="972" fill="#ffffff" y="-80.999999" height="971.999992" fill-opacity="1"/><rect x="-81" width="972" fill="#ffffff" y="-80.999999" height="971.999992" fill-opacity="1"/><rect x="-81" width="972" fill="#ffffff" y="-80.999999" height="971.999992" fill-opacity="1"/><g clip-path="url(#id1)"><g clip-path="url(#id2)"><g clip-path="url(#id3)"><path fill="#ffffff" d="M 391.457031 399.441406 C 391.175781 405.988281 390.972656 412.535156 390.839844 419.082031 C 390.707031 425.628906 390.648438 432.167969 390.660156 438.695312 C 390.675781 445.226562 390.761719 451.742188 390.921875 458.238281 C 391.082031 464.738281 391.316406 471.210938 391.621094 477.660156 C 391.929688 484.113281 392.308594 490.53125 392.757812 496.917969 C 393.210938 503.304688 393.734375 509.652344 394.332031 515.957031 C 394.925781 522.265625 395.59375 528.527344 396.335938 534.738281 C 397.074219 540.953125 397.882812 547.113281 398.761719 553.214844 C 399.640625 559.320312 400.589844 565.363281 401.609375 571.34375 C 402.628906 577.320312 403.714844 583.234375 404.871094 589.074219 C 406.027344 594.914062 407.25 600.679688 408.539062 606.367188 C 409.828125 612.058594 411.179688 617.664062 412.601562 623.183594 C 414.019531 628.707031 415.5 634.136719 417.046875 639.480469 C 418.59375 644.824219 420.203125 650.066406 421.871094 655.214844 C 423.542969 660.367188 425.269531 665.410156 427.058594 670.355469 C 428.847656 675.300781 430.695312 680.132812 432.597656 684.859375 C 434.503906 689.585938 436.460938 694.199219 438.476562 698.695312 C 440.492188 703.191406 442.558594 707.570312 444.675781 711.828125 C 446.796875 716.085938 448.964844 720.214844 451.1875 724.222656 C 453.40625 728.230469 455.671875 732.109375 457.988281 735.855469 C 460.300781 739.601562 462.660156 743.214844 465.066406 746.695312 C 467.46875 750.171875 469.914062 753.511719 472.402344 756.714844 C 474.890625 759.914062 477.414062 762.972656 479.980469 765.890625 C 482.546875 768.804688 485.144531 771.578125 487.78125 774.199219 C 490.417969 776.824219 493.085938 779.296875 495.785156 781.625 C 498.488281 783.949219 501.21875 786.121094 503.976562 788.144531 C 506.734375 790.164062 509.519531 792.03125 512.332031 793.742188 C 515.140625 795.453125 517.972656 797.011719 520.828125 798.410156 C 523.683594 799.808594 526.558594 801.046875 529.453125 802.128906 C 532.34375 803.210938 535.253906 804.132812 538.179688 804.898438 C 541.101562 805.660156 544.039062 806.261719 546.984375 806.703125 C 549.933594 807.144531 552.890625 807.425781 555.851562 807.546875 C 558.816406 807.664062 561.785156 807.625 564.757812 807.421875 C 567.734375 807.21875 570.707031 806.855469 573.683594 806.328125 C 576.660156 805.804688 579.632812 805.117188 582.601562 804.273438 C 585.574219 803.425781 588.539062 802.421875 591.496094 801.257812 C 594.453125 800.09375 597.402344 798.769531 600.34375 797.289062 C 603.28125 795.8125 606.207031 794.175781 609.121094 792.382812 C 612.03125 790.589844 614.925781 788.644531 617.804688 786.542969 C 620.683594 784.441406 623.542969 782.191406 626.382812 779.789062 C 629.21875 777.382812 632.035156 774.832031 634.824219 772.132812 C 637.617188 769.433594 640.378906 766.585938 643.117188 763.597656 C 645.851562 760.605469 648.558594 757.472656 651.234375 754.199219 C 653.910156 750.925781 656.550781 747.515625 659.160156 743.964844 C 661.765625 740.417969 664.339844 736.734375 666.871094 732.917969 C 669.40625 729.101562 671.902344 725.160156 674.355469 721.085938 C 676.808594 717.011719 679.222656 712.816406 681.589844 708.496094 C 683.960938 704.175781 686.28125 699.734375 688.558594 695.179688 C 690.835938 690.621094 693.066406 685.949219 695.246094 681.167969 C 697.425781 676.382812 699.554688 671.492188 701.632812 666.496094 C 703.710938 661.496094 705.734375 656.398438 707.703125 651.199219 C 709.675781 645.996094 711.589844 640.703125 713.445312 635.3125 C 715.304688 629.921875 717.105469 624.445312 718.847656 618.878906 C 720.589844 613.3125 722.269531 607.664062 723.890625 601.933594 C 725.511719 596.207031 727.066406 590.402344 728.5625 584.523438 C 730.058594 578.644531 731.492188 572.699219 732.859375 566.683594 C 734.226562 560.671875 735.527344 554.597656 736.761719 548.464844 C 737.996094 542.328125 739.164062 536.144531 740.265625 529.902344 C 741.367188 523.664062 742.398438 517.378906 743.363281 511.050781 C 744.324219 504.722656 745.21875 498.355469 746.042969 491.949219 C 746.867188 485.542969 747.617188 479.109375 748.300781 472.644531 C 748.980469 466.183594 749.59375 459.695312 750.128906 453.1875 C 750.667969 446.679688 751.132812 440.160156 751.527344 433.621094 C 751.921875 427.085938 752.242188 420.546875 752.488281 413.996094 C 752.769531 407.449219 752.972656 400.902344 753.105469 394.359375 C 753.238281 387.8125 753.296875 381.273438 753.285156 374.742188 C 753.269531 368.214844 753.183594 361.699219 753.023438 355.199219 C 752.863281 348.703125 752.628906 342.230469 752.324219 335.777344 C 752.015625 329.328125 751.636719 322.910156 751.1875 316.523438 C 750.734375 310.136719 750.210938 303.789062 749.613281 297.480469 C 749.019531 291.175781 748.351562 284.914062 747.613281 278.699219 C 746.871094 272.488281 746.0625 266.328125 745.183594 260.222656 C 744.304688 254.121094 743.355469 248.078125 742.335938 242.097656 C 741.316406 236.117188 740.230469 230.207031 739.074219 224.367188 C 737.917969 218.523438 736.695312 212.757812 735.40625 207.070312 C 734.121094 201.382812 732.765625 195.777344 731.347656 190.253906 C 729.925781 184.734375 728.445312 179.300781 726.898438 173.960938 C 725.351562 168.617188 723.742188 163.371094 722.074219 158.222656 C 720.402344 153.074219 718.675781 148.027344 716.886719 143.085938 C 715.097656 138.140625 713.25 133.304688 711.347656 128.582031 C 709.441406 123.855469 707.484375 119.242188 705.46875 114.746094 C 703.457031 110.25 701.386719 105.871094 699.269531 101.613281 C 697.148438 97.355469 694.980469 93.222656 692.761719 89.214844 C 690.539062 85.210938 688.273438 81.332031 685.957031 77.585938 C 683.644531 73.835938 681.285156 70.222656 678.878906 66.746094 C 676.476562 63.265625 674.03125 59.925781 671.542969 56.726562 C 669.054688 53.523438 666.53125 50.464844 663.964844 47.550781 C 661.398438 44.632812 658.800781 41.863281 656.164062 39.242188 C 653.527344 36.617188 650.859375 34.140625 648.160156 31.816406 C 645.457031 29.492188 642.726562 27.316406 639.96875 25.296875 C 637.210938 23.277344 634.425781 21.410156 631.613281 19.699219 C 628.804688 17.984375 625.972656 16.429688 623.117188 15.03125 C 620.261719 13.632812 617.386719 12.390625 614.492188 11.308594 C 611.601562 10.226562 608.691406 9.304688 605.769531 8.542969 C 602.84375 7.78125 599.90625 7.179688 596.960938 6.734375 C 594.011719 6.292969 591.058594 6.015625 588.09375 5.894531 C 585.128906 5.773438 582.160156 5.816406 579.1875 6.019531 C 576.210938 6.222656 573.238281 6.585938 570.261719 7.113281 C 567.285156 7.636719 564.3125 8.320312 561.34375 9.167969 C 558.371094 10.011719 555.40625 11.019531 552.449219 12.183594 C 549.492188 13.347656 546.542969 14.667969 543.601562 16.148438 C 540.664062 17.628906 537.738281 19.265625 534.824219 21.058594 C 531.914062 22.851562 529.019531 24.796875 526.140625 26.898438 C 523.261719 28.996094 520.402344 31.25 517.5625 33.652344 C 514.726562 36.054688 511.910156 38.609375 509.121094 41.308594 C 506.328125 44.007812 503.566406 46.851562 500.832031 49.84375 C 498.09375 52.835938 495.386719 55.964844 492.710938 59.242188 C 490.035156 62.515625 487.394531 65.925781 484.785156 69.472656 C 482.179688 73.023438 479.609375 76.707031 477.074219 80.519531 C 474.539062 84.335938 472.042969 88.28125 469.589844 92.355469 C 467.136719 96.425781 464.722656 100.625 462.355469 104.945312 C 459.984375 109.265625 457.664062 113.703125 455.386719 118.261719 C 453.109375 122.820312 450.878906 127.488281 448.699219 132.273438 C 446.519531 137.058594 444.390625 141.949219 442.3125 146.945312 C 440.234375 151.945312 438.210938 157.042969 436.242188 162.242188 C 434.269531 167.441406 432.355469 172.738281 430.5 178.128906 C 428.640625 183.515625 426.839844 188.996094 425.097656 194.5625 C 423.359375 200.128906 421.675781 205.777344 420.054688 211.503906 C 418.433594 217.234375 416.878906 223.039062 415.382812 228.917969 C 413.886719 234.796875 412.453125 240.742188 411.085938 246.753906 C 409.71875 252.769531 408.417969 258.84375 407.183594 264.976562 C 405.949219 271.109375 404.78125 277.296875 403.679688 283.535156 C 402.578125 289.777344 401.546875 296.058594 400.582031 302.390625 C 399.621094 308.71875 398.726562 315.085938 397.902344 321.492188 C 397.078125 327.894531 396.328125 334.328125 395.644531 340.792969 C 394.964844 347.257812 394.355469 353.742188 393.816406 360.25 C 393.277344 366.757812 392.8125 373.28125 392.417969 379.816406 C 392.023438 386.351562 391.703125 392.894531 391.457031 399.441406 Z M 391.457031 399.441406 " fill-opacity="1" fill-rule="evenodd"/></g></g></g><g clip-path="url(#id4)"><g clip-path="url(#id5)"><g clip-path="url(#id6)"><path fill="#000000" d="M 399.097656 433.101562 C 398.847656 438.976562 398.664062 444.851562 398.546875 450.722656 C 398.425781 456.597656 398.375 462.464844 398.386719 468.324219 C 398.398438 474.183594 398.476562 480.03125 398.621094 485.859375 C 398.765625 491.691406 398.972656 497.5 399.25 503.289062 C 399.523438 509.078125 399.863281 514.835938 400.269531 520.566406 C 400.675781 526.296875 401.144531 531.992188 401.679688 537.652344 C 402.214844 543.3125 402.8125 548.929688 403.476562 554.507812 C 404.140625 560.082031 404.867188 565.609375 405.65625 571.085938 C 406.445312 576.5625 407.296875 581.984375 408.210938 587.351562 C 409.125 592.71875 410.101562 598.019531 411.136719 603.261719 C 412.175781 608.503906 413.273438 613.675781 414.429688 618.78125 C 415.585938 623.886719 416.800781 628.914062 418.074219 633.871094 C 419.347656 638.824219 420.679688 643.699219 422.066406 648.492188 C 423.453125 653.285156 424.894531 657.992188 426.394531 662.613281 C 427.894531 667.234375 429.445312 671.761719 431.050781 676.199219 C 432.65625 680.632812 434.3125 684.972656 436.019531 689.214844 C 437.730469 693.453125 439.488281 697.59375 441.292969 701.628906 C 443.101562 705.664062 444.957031 709.589844 446.859375 713.410156 C 448.761719 717.230469 450.707031 720.941406 452.699219 724.535156 C 454.691406 728.132812 456.726562 731.609375 458.800781 734.972656 C 460.878906 738.335938 462.996094 741.578125 465.152344 744.699219 C 467.3125 747.820312 469.503906 750.816406 471.738281 753.691406 C 473.96875 756.5625 476.238281 759.308594 478.539062 761.921875 C 480.839844 764.539062 483.171875 767.027344 485.539062 769.378906 C 487.902344 771.734375 490.296875 773.957031 492.722656 776.042969 C 495.144531 778.128906 497.59375 780.078125 500.070312 781.890625 C 502.546875 783.707031 505.046875 785.378906 507.566406 786.917969 C 510.089844 788.453125 512.632812 789.847656 515.191406 791.105469 C 517.753906 792.359375 520.335938 793.472656 522.929688 794.441406 C 525.527344 795.414062 528.136719 796.242188 530.761719 796.925781 C 533.382812 797.609375 536.019531 798.152344 538.664062 798.546875 C 541.308594 798.941406 543.960938 799.195312 546.621094 799.300781 C 549.28125 799.410156 551.945312 799.371094 554.613281 799.191406 C 557.28125 799.007812 559.949219 798.679688 562.621094 798.210938 C 565.289062 797.738281 567.957031 797.125 570.625 796.363281 C 573.289062 795.605469 575.949219 794.703125 578.605469 793.660156 C 581.257812 792.613281 583.90625 791.425781 586.542969 790.097656 C 589.179688 788.769531 591.804688 787.304688 594.417969 785.695312 C 597.03125 784.085938 599.628906 782.339844 602.214844 780.453125 C 604.796875 778.570312 607.359375 776.550781 609.90625 774.394531 C 612.453125 772.238281 614.980469 769.945312 617.484375 767.523438 C 619.988281 765.101562 622.46875 762.546875 624.921875 759.863281 C 627.378906 757.179688 629.808594 754.371094 632.207031 751.433594 C 634.609375 748.496094 636.980469 745.433594 639.320312 742.25 C 641.660156 739.0625 643.964844 735.757812 646.242188 732.335938 C 648.515625 728.910156 650.753906 725.371094 652.957031 721.71875 C 655.160156 718.0625 657.324219 714.296875 659.449219 710.421875 C 661.574219 706.542969 663.65625 702.558594 665.699219 698.46875 C 667.746094 694.378906 669.746094 690.191406 671.699219 685.898438 C 673.65625 681.605469 675.566406 677.214844 677.429688 672.730469 C 679.296875 668.246094 681.113281 663.671875 682.878906 659.003906 C 684.648438 654.339844 686.367188 649.585938 688.03125 644.75 C 689.699219 639.914062 691.316406 635 692.878906 630.003906 C 694.441406 625.007812 695.949219 619.941406 697.402344 614.800781 C 698.855469 609.660156 700.253906 604.449219 701.597656 599.175781 C 702.9375 593.902344 704.222656 588.566406 705.449219 583.167969 C 706.675781 577.773438 707.84375 572.324219 708.953125 566.820312 C 710.0625 561.3125 711.109375 555.761719 712.097656 550.164062 C 713.085938 544.566406 714.011719 538.925781 714.875 533.246094 C 715.738281 527.566406 716.542969 521.851562 717.28125 516.105469 C 718.019531 510.359375 718.695312 504.585938 719.304688 498.785156 C 719.917969 492.984375 720.464844 487.164062 720.949219 481.324219 C 721.429688 475.484375 721.847656 469.632812 722.203125 463.769531 C 722.554688 457.902344 722.84375 452.035156 723.066406 446.15625 C 723.316406 440.285156 723.5 434.410156 723.617188 428.535156 C 723.738281 422.660156 723.789062 416.792969 723.777344 410.933594 C 723.765625 405.074219 723.6875 399.230469 723.542969 393.398438 C 723.398438 387.566406 723.191406 381.757812 722.914062 375.96875 C 722.640625 370.183594 722.300781 364.421875 721.894531 358.691406 C 721.488281 352.960938 721.019531 347.265625 720.484375 341.605469 C 719.949219 335.945312 719.347656 330.328125 718.6875 324.753906 C 718.023438 319.175781 717.296875 313.648438 716.507812 308.171875 C 715.71875 302.695312 714.867188 297.273438 713.949219 291.90625 C 713.035156 286.542969 712.0625 281.238281 711.023438 275.996094 C 709.988281 270.753906 708.890625 265.582031 707.734375 260.476562 C 706.578125 255.375 705.363281 250.34375 704.089844 245.386719 C 702.816406 240.433594 701.484375 235.558594 700.097656 230.765625 C 698.710938 225.972656 697.265625 221.265625 695.769531 216.644531 C 694.269531 212.023438 692.71875 207.496094 691.113281 203.0625 C 689.507812 198.625 687.851562 194.285156 686.144531 190.046875 C 684.433594 185.804688 682.675781 181.667969 680.867188 177.632812 C 679.0625 173.597656 677.207031 169.667969 675.304688 165.847656 C 673.402344 162.027344 671.457031 158.320312 669.464844 154.722656 C 667.472656 151.128906 665.4375 147.648438 663.359375 144.285156 C 661.285156 140.921875 659.167969 137.679688 657.007812 134.558594 C 654.851562 131.4375 652.65625 128.441406 650.425781 125.570312 C 648.195312 122.695312 645.925781 119.953125 643.625 117.335938 C 641.324219 114.71875 638.992188 112.234375 636.625 109.878906 C 634.261719 107.523438 631.867188 105.304688 629.441406 103.21875 C 627.019531 101.132812 624.570312 99.179688 622.09375 97.367188 C 619.617188 95.554688 617.117188 93.878906 614.597656 92.34375 C 612.074219 90.804688 609.53125 89.410156 606.96875 88.15625 C 604.40625 86.902344 601.828125 85.789062 599.234375 84.816406 C 596.636719 83.847656 594.027344 83.019531 591.402344 82.332031 C 588.777344 81.648438 586.144531 81.109375 583.5 80.710938 C 580.855469 80.316406 578.203125 80.066406 575.542969 79.957031 C 572.882812 79.851562 570.21875 79.886719 567.550781 80.070312 C 564.882812 80.25 562.214844 80.578125 559.542969 81.050781 C 556.871094 81.519531 554.203125 82.136719 551.539062 82.894531 C 548.875 83.652344 546.214844 84.554688 543.558594 85.601562 C 540.902344 86.644531 538.257812 87.832031 535.621094 89.160156 C 532.984375 90.488281 530.359375 91.957031 527.746094 93.566406 C 525.132812 95.171875 522.535156 96.921875 519.949219 98.804688 C 517.367188 100.6875 514.800781 102.710938 512.253906 104.867188 C 509.707031 107.023438 507.183594 109.3125 504.679688 111.734375 C 502.175781 114.160156 499.695312 116.710938 497.238281 119.394531 C 494.785156 122.078125 492.355469 124.890625 489.957031 127.828125 C 487.554688 130.765625 485.183594 133.824219 482.84375 137.011719 C 480.503906 140.195312 478.195312 143.5 475.921875 146.921875 C 473.648438 150.347656 471.410156 153.886719 469.207031 157.542969 C 467.003906 161.195312 464.839844 164.960938 462.714844 168.839844 C 460.589844 172.714844 458.503906 176.699219 456.460938 180.789062 C 454.417969 184.878906 452.417969 189.070312 450.464844 193.363281 C 448.507812 197.65625 446.597656 202.042969 444.730469 206.527344 C 442.867188 211.011719 441.050781 215.589844 439.285156 220.253906 C 437.515625 224.921875 435.796875 229.671875 434.128906 234.507812 C 432.464844 239.34375 430.847656 244.261719 429.285156 249.253906 C 427.722656 254.25 426.214844 259.316406 424.761719 264.460938 C 423.304688 269.601562 421.910156 274.808594 420.566406 280.082031 C 419.222656 285.359375 417.941406 290.695312 416.710938 296.089844 C 415.484375 301.488281 414.320312 306.9375 413.210938 312.441406 C 412.101562 317.945312 411.054688 323.496094 410.066406 329.09375 C 409.078125 334.695312 408.152344 340.332031 407.289062 346.011719 C 406.421875 351.691406 405.621094 357.40625 404.882812 363.152344 C 404.144531 368.898438 403.46875 374.671875 402.859375 380.472656 C 402.246094 386.273438 401.699219 392.09375 401.214844 397.933594 C 400.734375 403.773438 400.316406 409.625 399.960938 415.492188 C 399.609375 421.355469 399.320312 427.226562 399.097656 433.101562 Z M 399.097656 433.101562 " fill-opacity="1" fill-rule="evenodd"/></g></g></g><g clip-path="url(#id7)"><g clip-path="url(#id8)"><g clip-path="url(#id9)"><path fill="#ffffff" d="M 446.113281 382.730469 C 447.066406 389.214844 447.941406 395.707031 448.746094 402.207031 C 449.550781 408.703125 450.28125 415.203125 450.9375 421.699219 C 451.59375 428.199219 452.175781 434.6875 452.683594 441.167969 C 453.191406 447.648438 453.621094 454.113281 453.980469 460.5625 C 454.335938 467.007812 454.617188 473.433594 454.824219 479.832031 C 455.03125 486.230469 455.160156 492.601562 455.214844 498.9375 C 455.269531 505.273438 455.25 511.570312 455.152344 517.824219 C 455.054688 524.082031 454.882812 530.292969 454.632812 536.457031 C 454.382812 542.617188 454.058594 548.726562 453.660156 554.777344 C 453.261719 560.832031 452.785156 566.824219 452.234375 572.753906 C 451.6875 578.683594 451.0625 584.542969 450.363281 590.335938 C 449.664062 596.125 448.894531 601.839844 448.050781 607.480469 C 447.203125 613.117188 446.285156 618.671875 445.296875 624.144531 C 444.304688 629.617188 443.246094 635.003906 442.113281 640.296875 C 440.980469 645.589844 439.777344 650.785156 438.507812 655.886719 C 437.234375 660.988281 435.894531 665.988281 434.484375 670.882812 C 433.074219 675.78125 431.601562 680.570312 430.058594 685.25 C 428.515625 689.929688 426.910156 694.496094 425.238281 698.949219 C 423.566406 703.402344 421.832031 707.734375 420.035156 711.949219 C 418.238281 716.164062 416.382812 720.253906 414.464844 724.21875 C 412.546875 728.183594 410.570312 732.019531 408.535156 735.726562 C 406.5 739.433594 404.410156 743.007812 402.265625 746.449219 C 400.117188 749.886719 397.917969 753.1875 395.667969 756.351562 C 393.414062 759.515625 391.113281 762.539062 388.761719 765.417969 C 386.40625 768.300781 384.007812 771.035156 381.558594 773.625 C 379.109375 776.214844 376.617188 778.65625 374.082031 780.953125 C 371.542969 783.246094 368.964844 785.386719 366.34375 787.378906 C 363.722656 789.371094 361.066406 791.207031 358.367188 792.890625 C 355.671875 794.578125 352.941406 796.105469 350.171875 797.476562 C 347.40625 798.851562 344.605469 800.066406 341.777344 801.125 C 338.945312 802.183594 336.085938 803.085938 333.199219 803.828125 C 330.3125 804.566406 327.402344 805.148438 324.464844 805.574219 C 321.527344 805.996094 318.570312 806.257812 315.59375 806.363281 C 312.613281 806.464844 309.617188 806.40625 306.601562 806.191406 C 303.589844 805.972656 300.5625 805.597656 297.519531 805.058594 C 294.476562 804.523438 291.425781 803.828125 288.363281 802.972656 C 285.300781 802.117188 282.230469 801.105469 279.15625 799.933594 C 276.078125 798.761719 273 797.433594 269.917969 795.949219 C 266.839844 794.464844 263.757812 792.828125 260.679688 791.03125 C 257.597656 789.238281 254.523438 787.292969 251.453125 785.191406 C 248.382812 783.09375 245.324219 780.84375 242.269531 778.441406 C 239.214844 776.042969 236.175781 773.496094 233.144531 770.800781 C 230.117188 768.105469 227.101562 765.269531 224.105469 762.285156 C 221.105469 759.304688 218.128906 756.179688 215.171875 752.917969 C 212.210938 749.65625 209.277344 746.253906 206.363281 742.71875 C 203.449219 739.183594 200.5625 735.515625 197.703125 731.714844 C 194.84375 727.914062 192.011719 723.988281 189.214844 719.933594 C 186.414062 715.878906 183.648438 711.699219 180.914062 707.398438 C 178.179688 703.097656 175.484375 698.679688 172.824219 694.148438 C 170.164062 689.613281 167.542969 684.964844 164.964844 680.207031 C 162.382812 675.445312 159.847656 670.582031 157.355469 665.609375 C 154.859375 660.640625 152.414062 655.570312 150.011719 650.398438 C 147.609375 645.226562 145.253906 639.960938 142.953125 634.601562 C 140.648438 629.242188 138.394531 623.796875 136.195312 618.265625 C 133.996094 612.730469 131.851562 607.117188 129.757812 601.421875 C 127.667969 595.726562 125.632812 589.957031 123.65625 584.117188 C 121.675781 578.273438 119.757812 572.367188 117.902344 566.390625 C 116.042969 560.414062 114.246094 554.382812 112.511719 548.285156 C 110.773438 542.191406 109.101562 536.046875 107.496094 529.847656 C 105.886719 523.652344 104.34375 517.410156 102.867188 511.121094 C 101.390625 504.835938 99.980469 498.511719 98.640625 492.152344 C 97.296875 485.789062 96.027344 479.402344 94.824219 472.980469 C 93.617188 466.5625 92.484375 460.121094 91.421875 453.660156 C 90.363281 447.199219 89.371094 440.726562 88.453125 434.234375 C 87.503906 427.753906 86.625 421.261719 85.820312 414.761719 C 85.019531 408.261719 84.289062 401.765625 83.632812 395.269531 C 82.976562 388.769531 82.394531 382.28125 81.886719 375.800781 C 81.378906 369.320312 80.945312 362.855469 80.589844 356.40625 C 80.230469 349.960938 79.949219 343.535156 79.742188 337.136719 C 79.539062 330.734375 79.40625 324.367188 79.351562 318.03125 C 79.296875 311.695312 79.320312 305.398438 79.417969 299.140625 C 79.515625 292.886719 79.6875 286.675781 79.933594 280.511719 C 80.183594 274.351562 80.507812 268.242188 80.90625 262.1875 C 81.308594 256.136719 81.78125 250.144531 82.332031 244.214844 C 82.882812 238.285156 83.503906 232.425781 84.203125 226.632812 C 84.902344 220.84375 85.671875 215.128906 86.519531 209.488281 C 87.363281 203.851562 88.28125 198.292969 89.269531 192.820312 C 90.261719 187.347656 91.320312 181.964844 92.453125 176.671875 C 93.585938 171.378906 94.789062 166.183594 96.0625 161.082031 C 97.332031 155.980469 98.675781 150.980469 100.082031 146.082031 C 101.492188 141.1875 102.96875 136.398438 104.507812 131.71875 C 106.050781 127.039062 107.65625 122.472656 109.328125 118.019531 C 111 113.566406 112.734375 109.230469 114.53125 105.019531 C 116.328125 100.804688 118.1875 96.714844 120.105469 92.75 C 122.023438 88.785156 124 84.945312 126.03125 81.242188 C 128.066406 77.535156 130.15625 73.960938 132.304688 70.519531 C 134.449219 67.082031 136.648438 63.777344 138.898438 60.613281 C 141.152344 57.453125 143.453125 54.429688 145.808594 51.546875 C 148.160156 48.667969 150.5625 45.933594 153.007812 43.34375 C 155.457031 40.753906 157.949219 38.308594 160.488281 36.015625 C 163.023438 33.722656 165.601562 31.582031 168.222656 29.589844 C 170.84375 27.597656 173.5 25.761719 176.199219 24.078125 C 178.894531 22.390625 181.628906 20.863281 184.394531 19.488281 C 187.160156 18.117188 189.960938 16.902344 192.789062 15.84375 C 195.621094 14.785156 198.480469 13.882812 201.367188 13.140625 C 204.253906 12.398438 207.164062 11.816406 210.101562 11.394531 C 213.039062 10.972656 215.996094 10.710938 218.976562 10.605469 C 221.953125 10.503906 224.949219 10.558594 227.964844 10.777344 C 230.980469 10.996094 234.007812 11.371094 237.050781 11.90625 C 240.089844 12.445312 243.144531 13.140625 246.207031 13.996094 C 249.269531 14.851562 252.335938 15.863281 255.414062 17.035156 C 258.488281 18.207031 261.566406 19.53125 264.648438 21.015625 C 267.730469 22.5 270.808594 24.140625 273.890625 25.933594 C 276.96875 27.730469 280.042969 29.675781 283.113281 31.777344 C 286.183594 33.875 289.246094 36.125 292.296875 38.527344 C 295.351562 40.925781 298.394531 43.472656 301.421875 46.167969 C 304.453125 48.859375 307.464844 51.699219 310.460938 54.683594 C 313.460938 57.664062 316.4375 60.785156 319.398438 64.050781 C 322.355469 67.3125 325.292969 70.710938 328.203125 74.25 C 331.117188 77.785156 334.003906 81.453125 336.863281 85.253906 C 339.722656 89.050781 342.554688 92.980469 345.355469 97.035156 C 348.152344 101.089844 350.921875 105.269531 353.652344 109.570312 C 356.386719 113.867188 359.082031 118.285156 361.742188 122.820312 C 364.402344 127.355469 367.023438 132.003906 369.601562 136.761719 C 372.183594 141.519531 374.71875 146.386719 377.214844 151.355469 C 379.707031 156.328125 382.15625 161.398438 384.558594 166.570312 C 386.957031 171.742188 389.3125 177.007812 391.617188 182.367188 C 393.917969 187.726562 396.171875 193.171875 398.371094 198.703125 C 400.570312 204.238281 402.71875 209.851562 404.808594 215.546875 C 406.902344 221.242188 408.933594 227.007812 410.914062 232.851562 C 412.890625 238.695312 414.808594 244.601562 416.667969 250.578125 C 418.523438 256.550781 420.324219 262.585938 422.058594 268.679688 C 423.792969 274.773438 425.464844 280.921875 427.074219 287.121094 C 428.679688 293.316406 430.222656 299.558594 431.699219 305.847656 C 433.175781 312.132812 434.585938 318.457031 435.925781 324.816406 C 437.269531 331.179688 438.542969 337.566406 439.746094 343.988281 C 440.949219 350.40625 442.082031 356.84375 443.144531 363.308594 C 444.207031 369.769531 445.195312 376.242188 446.113281 382.730469 Z M 446.113281 382.730469 " fill-opacity="1" fill-rule="evenodd"/></g></g></g><g clip-path="url(#id10)"><g clip-path="url(#id11)"><g clip-path="url(#id12)"><path fill="#000000" d="M 441.890625 416.902344 C 442.742188 422.722656 443.527344 428.546875 444.25 434.378906 C 444.96875 440.207031 445.625 446.039062 446.214844 451.867188 C 446.804688 457.699219 447.328125 463.519531 447.78125 469.335938 C 448.238281 475.152344 448.625 480.949219 448.945312 486.738281 C 449.265625 492.523438 449.519531 498.285156 449.703125 504.027344 C 449.886719 509.769531 450.003906 515.484375 450.054688 521.167969 C 450.101562 526.855469 450.085938 532.503906 449.996094 538.117188 C 449.910156 543.730469 449.753906 549.304688 449.53125 554.832031 C 449.308594 560.363281 449.015625 565.84375 448.660156 571.273438 C 448.300781 576.707031 447.875 582.082031 447.382812 587.402344 C 446.886719 592.722656 446.328125 597.980469 445.703125 603.175781 C 445.074219 608.371094 444.382812 613.5 443.625 618.558594 C 442.867188 623.617188 442.042969 628.605469 441.15625 633.515625 C 440.265625 638.425781 439.316406 643.253906 438.296875 648.003906 C 437.28125 652.753906 436.203125 657.417969 435.0625 661.996094 C 433.921875 666.570312 432.71875 671.058594 431.453125 675.449219 C 430.191406 679.84375 428.867188 684.140625 427.484375 688.339844 C 426.097656 692.539062 424.65625 696.636719 423.15625 700.632812 C 421.65625 704.628906 420.101562 708.515625 418.488281 712.296875 C 416.878906 716.078125 415.210938 719.746094 413.488281 723.304688 C 411.769531 726.863281 409.996094 730.304688 408.171875 733.632812 C 406.34375 736.957031 404.46875 740.164062 402.542969 743.25 C 400.617188 746.335938 398.644531 749.296875 396.625 752.136719 C 394.605469 754.976562 392.539062 757.6875 390.425781 760.273438 C 388.316406 762.855469 386.164062 765.3125 383.964844 767.636719 C 381.769531 769.960938 379.53125 772.152344 377.257812 774.207031 C 374.980469 776.265625 372.667969 778.1875 370.316406 779.976562 C 367.964844 781.761719 365.578125 783.410156 363.160156 784.921875 C 360.738281 786.433594 358.289062 787.804688 355.804688 789.039062 C 353.324219 790.269531 350.8125 791.359375 348.273438 792.308594 C 345.730469 793.261719 343.167969 794.066406 340.578125 794.734375 C 337.984375 795.398438 335.375 795.921875 332.738281 796.300781 C 330.105469 796.679688 327.449219 796.914062 324.777344 797.007812 C 322.105469 797.101562 319.414062 797.050781 316.710938 796.855469 C 314.007812 796.660156 311.289062 796.320312 308.5625 795.839844 C 305.832031 795.359375 303.09375 794.734375 300.34375 793.96875 C 297.597656 793.199219 294.84375 792.292969 292.082031 791.242188 C 289.324219 790.191406 286.5625 789 283.796875 787.667969 C 281.03125 786.335938 278.269531 784.863281 275.503906 783.253906 C 272.742188 781.644531 269.984375 779.898438 267.230469 778.011719 C 264.472656 776.128906 261.726562 774.109375 258.988281 771.957031 C 256.246094 769.804688 253.519531 767.519531 250.800781 765.101562 C 248.082031 762.683594 245.378906 760.136719 242.691406 757.460938 C 240 754.785156 237.328125 751.984375 234.671875 749.054688 C 232.019531 746.128906 229.382812 743.078125 226.769531 739.90625 C 224.15625 736.730469 221.566406 733.441406 219 730.03125 C 216.433594 726.621094 213.894531 723.097656 211.382812 719.460938 C 208.871094 715.820312 206.390625 712.070312 203.9375 708.214844 C 201.484375 704.355469 199.066406 700.390625 196.679688 696.324219 C 194.292969 692.253906 191.941406 688.082031 189.625 683.8125 C 187.3125 679.542969 185.035156 675.179688 182.796875 670.71875 C 180.558594 666.257812 178.363281 661.707031 176.207031 657.066406 C 174.054688 652.429688 171.941406 647.703125 169.875 642.894531 C 167.808594 638.089844 165.789062 633.203125 163.8125 628.238281 C 161.839844 623.273438 159.914062 618.234375 158.035156 613.125 C 156.160156 608.015625 154.335938 602.839844 152.5625 597.597656 C 150.785156 592.355469 149.066406 587.054688 147.398438 581.691406 C 145.730469 576.332031 144.117188 570.917969 142.558594 565.449219 C 141.003906 559.980469 139.503906 554.46875 138.0625 548.90625 C 136.617188 543.34375 135.234375 537.742188 133.910156 532.101562 C 132.585938 526.460938 131.320312 520.789062 130.117188 515.082031 C 128.914062 509.375 127.769531 503.640625 126.691406 497.882812 C 125.609375 492.121094 124.59375 486.34375 123.640625 480.546875 C 122.6875 474.75 121.800781 468.9375 120.976562 463.117188 C 120.121094 457.300781 119.335938 451.476562 118.613281 445.644531 C 117.894531 439.8125 117.238281 433.980469 116.648438 428.152344 C 116.058594 422.320312 115.539062 416.5 115.082031 410.683594 C 114.628906 404.871094 114.238281 399.070312 113.917969 393.285156 C 113.597656 387.5 113.34375 381.734375 113.160156 375.992188 C 112.976562 370.25 112.859375 364.535156 112.808594 358.851562 C 112.761719 353.167969 112.78125 347.515625 112.867188 341.902344 C 112.953125 336.289062 113.109375 330.71875 113.332031 325.1875 C 113.554688 319.660156 113.847656 314.179688 114.207031 308.746094 C 114.5625 303.316406 114.988281 297.9375 115.484375 292.617188 C 115.976562 287.300781 116.535156 282.039062 117.164062 276.84375 C 117.789062 271.648438 118.480469 266.519531 119.238281 261.460938 C 119.996094 256.402344 120.820312 251.417969 121.710938 246.507812 C 122.597656 241.597656 123.550781 236.765625 124.566406 232.015625 C 125.582031 227.265625 126.660156 222.605469 127.800781 218.027344 C 128.945312 213.449219 130.144531 208.964844 131.410156 204.570312 C 132.675781 200.175781 134 195.878906 135.382812 191.679688 C 136.765625 187.480469 138.207031 183.382812 139.707031 179.386719 C 141.207031 175.394531 142.761719 171.503906 144.375 167.722656 C 145.988281 163.941406 147.652344 160.273438 149.375 156.714844 C 151.09375 153.15625 152.867188 149.714844 154.695312 146.390625 C 156.519531 143.0625 158.394531 139.855469 160.320312 136.769531 C 162.246094 133.683594 164.21875 130.722656 166.238281 127.882812 C 168.261719 125.042969 170.324219 122.332031 172.4375 119.75 C 174.546875 117.164062 176.703125 114.710938 178.898438 112.386719 C 181.09375 110.0625 183.332031 107.871094 185.609375 105.8125 C 187.882812 103.753906 190.199219 101.832031 192.550781 100.046875 C 194.898438 98.257812 197.285156 96.609375 199.707031 95.097656 C 202.125 93.585938 204.578125 92.214844 207.058594 90.984375 C 209.542969 89.75 212.054688 88.660156 214.59375 87.710938 C 217.132812 86.761719 219.699219 85.953125 222.289062 85.289062 C 224.878906 84.621094 227.492188 84.101562 230.125 83.71875 C 232.761719 83.339844 235.414062 83.105469 238.085938 83.011719 C 240.761719 82.921875 243.449219 82.972656 246.152344 83.167969 C 248.855469 83.359375 251.574219 83.699219 254.304688 84.179688 C 257.035156 84.660156 259.773438 85.285156 262.519531 86.054688 C 265.269531 86.820312 268.019531 87.730469 270.78125 88.78125 C 273.539062 89.832031 276.304688 91.023438 279.066406 92.355469 C 281.832031 93.6875 284.597656 95.15625 287.359375 96.765625 C 290.121094 98.375 292.878906 100.125 295.636719 102.007812 C 298.390625 103.890625 301.136719 105.910156 303.875 108.0625 C 306.617188 110.214844 309.34375 112.503906 312.0625 114.917969 C 314.78125 117.335938 317.484375 119.882812 320.175781 122.558594 C 322.863281 125.234375 325.535156 128.039062 328.191406 130.964844 C 330.847656 133.894531 333.480469 136.945312 336.09375 140.117188 C 338.707031 143.289062 341.296875 146.578125 343.863281 149.988281 C 346.429688 153.398438 348.96875 156.921875 351.480469 160.5625 C 353.992188 164.199219 356.476562 167.949219 358.929688 171.808594 C 361.378906 175.664062 363.800781 179.628906 366.1875 183.699219 C 368.574219 187.769531 370.921875 191.9375 373.238281 196.207031 C 375.554688 200.476562 377.828125 204.84375 380.066406 209.300781 C 382.304688 213.761719 384.5 218.3125 386.65625 222.953125 C 388.8125 227.59375 390.921875 232.316406 392.988281 237.125 C 395.054688 241.933594 397.078125 246.820312 399.050781 251.785156 C 401.027344 256.75 402.949219 261.785156 404.828125 266.894531 C 406.703125 272.003906 408.53125 277.179688 410.304688 282.421875 C 412.078125 287.664062 413.800781 292.964844 415.464844 298.328125 C 417.132812 303.6875 418.746094 309.105469 420.304688 314.570312 C 421.859375 320.039062 423.359375 325.554688 424.804688 331.117188 C 426.246094 336.675781 427.628906 342.277344 428.957031 347.917969 C 430.28125 353.558594 431.542969 359.234375 432.75 364.941406 C 433.953125 370.648438 435.09375 376.378906 436.171875 382.140625 C 437.253906 387.898438 438.269531 393.675781 439.222656 399.476562 C 440.175781 405.273438 441.066406 411.082031 441.890625 416.902344 Z M 441.890625 416.902344 " fill-opacity="1" fill-rule="evenodd"/></g></g></g><g clip-path="url(#id13)"><g clip-path="url(#id14)"><g clip-path="url(#id15)"><path fill="#ffffff" d="M 352.71875 609.480469 C 352.964844 611.171875 353.179688 612.863281 353.375 614.5625 C 353.566406 616.257812 353.730469 617.957031 353.871094 619.652344 C 354.007812 621.351562 354.121094 623.050781 354.207031 624.746094 C 354.292969 626.441406 354.355469 628.132812 354.386719 629.820312 C 354.421875 631.507812 354.429688 633.191406 354.410156 634.867188 C 354.390625 636.546875 354.34375 638.214844 354.273438 639.878906 C 354.199219 641.542969 354.101562 643.195312 353.976562 644.839844 C 353.851562 646.480469 353.699219 648.113281 353.523438 649.734375 C 353.34375 651.355469 353.140625 652.960938 352.910156 654.554688 C 352.679688 656.148438 352.425781 657.726562 352.144531 659.292969 C 351.863281 660.855469 351.558594 662.398438 351.226562 663.929688 C 350.894531 665.457031 350.535156 666.96875 350.152344 668.457031 C 349.773438 669.949219 349.367188 671.417969 348.933594 672.867188 C 348.503906 674.316406 348.046875 675.742188 347.570312 677.144531 C 347.089844 678.546875 346.585938 679.929688 346.0625 681.28125 C 345.535156 682.636719 344.984375 683.96875 344.414062 685.269531 C 343.84375 686.574219 343.25 687.847656 342.632812 689.097656 C 342.015625 690.34375 341.378906 691.566406 340.71875 692.753906 C 340.0625 693.945312 339.382812 695.105469 338.683594 696.234375 C 337.980469 697.363281 337.261719 698.460938 336.523438 699.527344 C 335.785156 700.589844 335.023438 701.625 334.246094 702.625 C 333.472656 703.625 332.675781 704.589844 331.863281 705.519531 C 331.050781 706.449219 330.21875 707.347656 329.371094 708.207031 C 328.527344 709.066406 327.664062 709.890625 326.785156 710.675781 C 325.90625 711.464844 325.011719 712.214844 324.101562 712.925781 C 323.195312 713.640625 322.273438 714.3125 321.335938 714.949219 C 320.398438 715.585938 319.449219 716.183594 318.488281 716.738281 C 317.527344 717.296875 316.554688 717.816406 315.570312 718.296875 C 314.585938 718.773438 313.589844 719.210938 312.585938 719.609375 C 311.582031 720.007812 310.566406 720.367188 309.542969 720.683594 C 308.519531 721 307.488281 721.273438 306.453125 721.507812 C 305.414062 721.742188 304.367188 721.933594 303.316406 722.085938 C 302.261719 722.238281 301.203125 722.347656 300.140625 722.417969 C 299.078125 722.484375 298.011719 722.511719 296.941406 722.496094 C 295.871094 722.480469 294.796875 722.425781 293.71875 722.328125 C 292.644531 722.226562 291.566406 722.089844 290.488281 721.90625 C 289.40625 721.726562 288.328125 721.503906 287.246094 721.238281 C 286.167969 720.976562 285.089844 720.671875 284.011719 720.324219 C 282.933594 719.976562 281.859375 719.589844 280.785156 719.164062 C 279.714844 718.738281 278.644531 718.269531 277.578125 717.761719 C 276.515625 717.253906 275.453125 716.707031 274.398438 716.121094 C 273.34375 715.535156 272.292969 714.910156 271.253906 714.246094 C 270.210938 713.582031 269.175781 712.882812 268.144531 712.140625 C 267.117188 711.402344 266.101562 710.625 265.089844 709.8125 C 264.078125 709 263.078125 708.148438 262.089844 707.261719 C 261.097656 706.378906 260.121094 705.457031 259.152344 704.5 C 258.183594 703.542969 257.230469 702.554688 256.285156 701.53125 C 255.34375 700.507812 254.414062 699.453125 253.496094 698.363281 C 252.582031 697.273438 251.679688 696.152344 250.792969 695.003906 C 249.90625 693.851562 249.035156 692.667969 248.179688 691.457031 C 247.320312 690.246094 246.484375 689.007812 245.660156 687.738281 C 244.839844 686.46875 244.035156 685.175781 243.246094 683.851562 C 242.460938 682.53125 241.691406 681.183594 240.941406 679.808594 C 240.191406 678.4375 239.460938 677.039062 238.75 675.621094 C 238.039062 674.199219 237.347656 672.757812 236.679688 671.292969 C 236.007812 669.828125 235.359375 668.34375 234.734375 666.839844 C 234.105469 665.335938 233.5 663.8125 232.914062 662.269531 C 232.332031 660.730469 231.769531 659.171875 231.230469 657.597656 C 230.695312 656.023438 230.179688 654.433594 229.6875 652.828125 C 229.195312 651.226562 228.726562 649.609375 228.28125 647.980469 C 227.839844 646.351562 227.417969 644.710938 227.023438 643.058594 C 226.628906 641.410156 226.257812 639.75 225.910156 638.082031 C 225.566406 636.410156 225.246094 634.738281 224.953125 633.054688 C 224.65625 631.371094 224.386719 629.6875 224.144531 627.996094 C 223.898438 626.304688 223.683594 624.609375 223.492188 622.914062 C 223.300781 621.214844 223.132812 619.519531 222.996094 617.820312 C 222.855469 616.121094 222.742188 614.425781 222.65625 612.730469 C 222.570312 611.035156 222.507812 609.34375 222.476562 607.65625 C 222.441406 605.964844 222.433594 604.28125 222.453125 602.605469 C 222.472656 600.929688 222.519531 599.257812 222.589844 597.59375 C 222.664062 595.933594 222.761719 594.28125 222.886719 592.636719 C 223.011719 590.992188 223.164062 589.359375 223.34375 587.738281 C 223.519531 586.121094 223.722656 584.511719 223.953125 582.917969 C 224.183594 581.324219 224.4375 579.746094 224.71875 578.183594 C 225 576.621094 225.308594 575.074219 225.640625 573.546875 C 225.972656 572.015625 226.328125 570.507812 226.710938 569.015625 C 227.09375 567.527344 227.5 566.054688 227.929688 564.609375 C 228.359375 563.160156 228.816406 561.734375 229.296875 560.328125 C 229.773438 558.925781 230.277344 557.546875 230.804688 556.191406 C 231.328125 554.835938 231.878906 553.507812 232.449219 552.203125 C 233.019531 550.902344 233.617188 549.625 234.230469 548.378906 C 234.847656 547.128906 235.484375 545.910156 236.144531 544.71875 C 236.800781 543.53125 237.480469 542.371094 238.183594 541.242188 C 238.882812 540.113281 239.601562 539.015625 240.339844 537.949219 C 241.082031 536.882812 241.839844 535.851562 242.617188 534.851562 C 243.394531 533.851562 244.1875 532.886719 245 531.953125 C 245.816406 531.023438 246.644531 530.128906 247.492188 529.269531 C 248.339844 528.40625 249.203125 527.585938 250.082031 526.796875 C 250.960938 526.011719 251.851562 525.261719 252.761719 524.546875 C 253.667969 523.835938 254.59375 523.160156 255.527344 522.523438 C 256.464844 521.890625 257.414062 521.292969 258.375 520.734375 C 259.335938 520.175781 260.308594 519.65625 261.292969 519.179688 C 262.277344 518.699219 263.273438 518.261719 264.277344 517.863281 C 265.28125 517.464844 266.296875 517.109375 267.320312 516.792969 C 268.34375 516.476562 269.375 516.199219 270.414062 515.964844 C 271.453125 515.730469 272.496094 515.539062 273.550781 515.386719 C 274.601562 515.234375 275.660156 515.125 276.722656 515.058594 C 277.785156 514.988281 278.851562 514.960938 279.921875 514.976562 C 280.992188 514.992188 282.066406 515.050781 283.144531 515.148438 C 284.21875 515.246094 285.296875 515.386719 286.378906 515.566406 C 287.457031 515.75 288.535156 515.972656 289.617188 516.234375 C 290.695312 516.5 291.773438 516.804688 292.851562 517.148438 C 293.929688 517.496094 295.003906 517.882812 296.078125 518.308594 C 297.148438 518.738281 298.21875 519.203125 299.285156 519.710938 C 300.347656 520.21875 301.410156 520.765625 302.464844 521.351562 C 303.519531 521.9375 304.570312 522.5625 305.613281 523.226562 C 306.65625 523.890625 307.691406 524.59375 308.71875 525.332031 C 309.746094 526.070312 310.765625 526.847656 311.773438 527.660156 C 312.785156 528.476562 313.785156 529.324219 314.773438 530.210938 C 315.765625 531.097656 316.742188 532.019531 317.710938 532.972656 C 318.679688 533.929688 319.636719 534.917969 320.578125 535.941406 C 321.519531 536.964844 322.449219 538.023438 323.367188 539.113281 C 324.285156 540.199219 325.183594 541.320312 326.070312 542.472656 C 326.957031 543.625 327.832031 544.804688 328.6875 546.015625 C 329.542969 547.226562 330.378906 548.46875 331.203125 549.734375 C 332.027344 551.003906 332.832031 552.300781 333.617188 553.621094 C 334.40625 554.945312 335.171875 556.292969 335.921875 557.664062 C 336.671875 559.035156 337.402344 560.433594 338.113281 561.855469 C 338.824219 563.273438 339.515625 564.714844 340.183594 566.179688 C 340.855469 567.644531 341.503906 569.128906 342.132812 570.632812 C 342.757812 572.136719 343.363281 573.660156 343.949219 575.203125 C 344.53125 576.746094 345.09375 578.300781 345.632812 579.878906 C 346.171875 581.453125 346.683594 583.039062 347.175781 584.644531 C 347.667969 586.25 348.136719 587.867188 348.582031 589.496094 C 349.027344 591.125 349.445312 592.765625 349.839844 594.414062 C 350.234375 596.066406 350.605469 597.726562 350.953125 599.394531 C 351.296875 601.0625 351.617188 602.738281 351.914062 604.417969 C 352.207031 606.101562 352.476562 607.789062 352.71875 609.480469 Z M 352.71875 609.480469 " fill-opacity="1" fill-rule="evenodd"/></g></g></g><g clip-path="url(#id16)"><g clip-path="url(#id17)"><g clip-path="url(#id18)"><path fill="#ffffff" d="M 631.226562 594.933594 C 631.230469 596.644531 631.207031 598.351562 631.160156 600.058594 C 631.113281 601.765625 631.039062 603.46875 630.941406 605.167969 C 630.839844 606.871094 630.714844 608.566406 630.5625 610.257812 C 630.414062 611.949219 630.234375 613.632812 630.03125 615.308594 C 629.828125 616.984375 629.601562 618.652344 629.347656 620.308594 C 629.09375 621.96875 628.816406 623.617188 628.511719 625.25 C 628.207031 626.886719 627.878906 628.511719 627.523438 630.121094 C 627.167969 631.730469 626.792969 633.324219 626.390625 634.90625 C 625.984375 636.484375 625.558594 638.046875 625.109375 639.59375 C 624.660156 641.140625 624.183594 642.667969 623.6875 644.175781 C 623.191406 645.683594 622.671875 647.171875 622.128906 648.636719 C 621.585938 650.105469 621.023438 651.550781 620.433594 652.972656 C 619.847656 654.394531 619.238281 655.792969 618.609375 657.167969 C 617.980469 658.542969 617.332031 659.890625 616.660156 661.214844 C 615.988281 662.535156 615.296875 663.832031 614.589844 665.097656 C 613.878906 666.367188 613.148438 667.605469 612.398438 668.816406 C 611.652344 670.027344 610.886719 671.207031 610.101562 672.355469 C 609.316406 673.507812 608.515625 674.625 607.695312 675.710938 C 606.875 676.796875 606.042969 677.847656 605.191406 678.871094 C 604.339844 679.890625 603.472656 680.875 602.59375 681.828125 C 601.710938 682.777344 600.816406 683.695312 599.90625 684.578125 C 598.996094 685.457031 598.074219 686.300781 597.140625 687.109375 C 596.203125 687.917969 595.257812 688.6875 594.296875 689.421875 C 593.339844 690.15625 592.367188 690.847656 591.390625 691.503906 C 590.410156 692.164062 589.417969 692.78125 588.417969 693.359375 C 587.421875 693.9375 586.414062 694.472656 585.398438 694.972656 C 584.378906 695.472656 583.359375 695.929688 582.328125 696.347656 C 581.296875 696.765625 580.261719 697.144531 579.21875 697.480469 C 578.179688 697.816406 577.132812 698.109375 576.082031 698.363281 C 575.03125 698.617188 573.976562 698.828125 572.917969 699 C 571.863281 699.167969 570.800781 699.296875 569.742188 699.382812 C 568.679688 699.472656 567.617188 699.515625 566.554688 699.519531 C 565.492188 699.519531 564.429688 699.480469 563.367188 699.402344 C 562.304688 699.320312 561.246094 699.199219 560.1875 699.03125 C 559.128906 698.867188 558.074219 698.660156 557.019531 698.414062 C 555.96875 698.164062 554.921875 697.875 553.878906 697.546875 C 552.832031 697.214844 551.796875 696.84375 550.765625 696.429688 C 549.730469 696.019531 548.707031 695.566406 547.6875 695.070312 C 546.667969 694.578125 545.660156 694.046875 544.65625 693.472656 C 543.652344 692.898438 542.660156 692.285156 541.675781 691.636719 C 540.691406 690.984375 539.71875 690.292969 538.757812 689.566406 C 537.792969 688.839844 536.84375 688.074219 535.902344 687.269531 C 534.964844 686.464844 534.035156 685.625 533.121094 684.75 C 532.207031 683.875 531.308594 682.960938 530.421875 682.015625 C 529.535156 681.066406 528.664062 680.085938 527.808594 679.070312 C 526.949219 678.054688 526.109375 677.007812 525.285156 675.925781 C 524.460938 674.84375 523.652344 673.730469 522.863281 672.582031 C 522.070312 671.4375 521.300781 670.261719 520.542969 669.054688 C 519.789062 667.847656 519.054688 666.613281 518.335938 665.351562 C 517.617188 664.085938 516.921875 662.792969 516.242188 661.472656 C 515.566406 660.15625 514.910156 658.808594 514.269531 657.4375 C 513.632812 656.070312 513.019531 654.671875 512.425781 653.253906 C 511.832031 651.835938 511.257812 650.394531 510.707031 648.929688 C 510.15625 647.464844 509.628906 645.980469 509.125 644.472656 C 508.617188 642.96875 508.136719 641.441406 507.679688 639.898438 C 507.21875 638.355469 506.785156 636.796875 506.375 635.21875 C 505.964844 633.640625 505.578125 632.046875 505.214844 630.4375 C 504.851562 628.832031 504.515625 627.210938 504.199219 625.574219 C 503.886719 623.941406 503.601562 622.296875 503.335938 620.636719 C 503.074219 618.980469 502.835938 617.316406 502.625 615.640625 C 502.414062 613.964844 502.226562 612.28125 502.066406 610.59375 C 501.90625 608.902344 501.773438 607.207031 501.664062 605.507812 C 501.554688 603.804688 501.472656 602.101562 501.414062 600.394531 C 501.359375 598.691406 501.328125 596.980469 501.324219 595.273438 C 501.316406 593.5625 501.339844 591.855469 501.386719 590.148438 C 501.433594 588.441406 501.507812 586.738281 501.609375 585.039062 C 501.707031 583.335938 501.832031 581.640625 501.984375 579.949219 C 502.136719 578.257812 502.3125 576.574219 502.515625 574.898438 C 502.71875 573.222656 502.949219 571.554688 503.203125 569.898438 C 503.457031 568.238281 503.734375 566.589844 504.039062 564.957031 C 504.34375 563.320312 504.671875 561.695312 505.023438 560.085938 C 505.378906 558.476562 505.757812 556.882812 506.160156 555.300781 C 506.5625 553.722656 506.988281 552.160156 507.4375 550.613281 C 507.890625 549.066406 508.363281 547.539062 508.859375 546.03125 C 509.355469 544.523438 509.878906 543.035156 510.417969 541.570312 C 510.960938 540.101562 511.527344 538.65625 512.113281 537.234375 C 512.699219 535.8125 513.308594 534.414062 513.9375 533.039062 C 514.566406 531.664062 515.21875 530.316406 515.886719 528.996094 C 516.558594 527.671875 517.25 526.375 517.960938 525.109375 C 518.671875 523.839844 519.398438 522.601562 520.148438 521.390625 C 520.898438 520.179688 521.664062 519 522.449219 517.851562 C 523.234375 516.703125 524.035156 515.582031 524.851562 514.496094 C 525.671875 513.410156 526.507812 512.359375 527.359375 511.335938 C 528.210938 510.316406 529.074219 509.332031 529.957031 508.378906 C 530.835938 507.429688 531.734375 506.511719 532.640625 505.632812 C 533.550781 504.75 534.472656 503.90625 535.410156 503.097656 C 536.34375 502.289062 537.292969 501.519531 538.25 500.785156 C 539.210938 500.054688 540.179688 499.359375 541.160156 498.703125 C 542.140625 498.046875 543.128906 497.429688 544.128906 496.851562 C 545.128906 496.269531 546.136719 495.734375 547.152344 495.234375 C 548.167969 494.734375 549.191406 494.277344 550.222656 493.859375 C 551.25 493.441406 552.285156 493.0625 553.328125 492.726562 C 554.371094 492.390625 555.417969 492.097656 556.46875 491.84375 C 557.519531 491.589844 558.570312 491.378906 559.628906 491.207031 C 560.6875 491.039062 561.746094 490.910156 562.808594 490.824219 C 563.871094 490.738281 564.929688 490.691406 565.996094 490.6875 C 567.058594 490.6875 568.121094 490.726562 569.183594 490.804688 C 570.242188 490.886719 571.304688 491.011719 572.363281 491.175781 C 573.421875 491.339844 574.476562 491.546875 575.527344 491.792969 C 576.578125 492.042969 577.628906 492.332031 578.671875 492.664062 C 579.714844 492.992188 580.753906 493.363281 581.785156 493.777344 C 582.816406 494.191406 583.84375 494.640625 584.859375 495.136719 C 585.878906 495.628906 586.890625 496.164062 587.890625 496.734375 C 588.894531 497.308594 589.886719 497.921875 590.871094 498.570312 C 591.855469 499.222656 592.828125 499.914062 593.792969 500.640625 C 594.753906 501.371094 595.707031 502.136719 596.644531 502.9375 C 597.585938 503.742188 598.511719 504.582031 599.425781 505.457031 C 600.339844 506.332031 601.242188 507.246094 602.125 508.191406 C 603.011719 509.140625 603.882812 510.121094 604.742188 511.136719 C 605.597656 512.152344 606.4375 513.199219 607.261719 514.28125 C 608.085938 515.363281 608.894531 516.476562 609.6875 517.625 C 610.476562 518.769531 611.25 519.945312 612.003906 521.152344 C 612.757812 522.359375 613.496094 523.59375 614.210938 524.859375 C 614.929688 526.121094 615.628906 527.414062 616.304688 528.734375 C 616.984375 530.050781 617.640625 531.398438 618.277344 532.769531 C 618.914062 534.140625 619.53125 535.535156 620.125 536.953125 C 620.71875 538.371094 621.289062 539.8125 621.839844 541.277344 C 622.390625 542.742188 622.917969 544.226562 623.425781 545.734375 C 623.929688 547.238281 624.410156 548.765625 624.871094 550.308594 C 625.328125 551.851562 625.761719 553.410156 626.175781 554.988281 C 626.585938 556.566406 626.972656 558.160156 627.335938 559.769531 C 627.695312 561.375 628.035156 562.996094 628.347656 564.632812 C 628.660156 566.265625 628.949219 567.910156 629.210938 569.570312 C 629.472656 571.226562 629.710938 572.890625 629.921875 574.566406 C 630.136719 576.242188 630.320312 577.925781 630.480469 579.617188 C 630.640625 581.304688 630.777344 583 630.886719 584.699219 C 630.996094 586.402344 631.078125 588.105469 631.132812 589.8125 C 631.191406 591.519531 631.222656 593.226562 631.226562 594.933594 Z M 631.226562 594.933594 " fill-opacity="1" fill-rule="evenodd"/></g></g></g><g clip-path="url(#id19)"><g clip-path="url(#id20)"><g clip-path="url(#id21)"><path fill="#ffffff" d="M 46.855469 -175.070312 C -58.695312 -128.804688 -95.445312 20.332031 -35.1875 157.855469 C -33.855469 160.890625 -32.480469 163.894531 -31.082031 166.867188 C -53.59375 33.332031 -11.394531 -87.714844 82.328125 -128.800781 C 149.949219 -158.441406 230.023438 -140.085938 300.5 -87.386719 C 231.839844 -173.074219 130.273438 -211.640625 46.84375 -175.074219 Z M 46.855469 -175.070312 " fill-opacity="1" fill-rule="evenodd"/></g></g></g><g clip-path="url(#id22)"><g clip-path="url(#id23)"><g clip-path="url(#id24)"><path fill="#ffffff" d="M 725.148438 -269.941406 C 839.460938 -255.335938 916.796875 -122.625 897.792969 26.3125 C 897.371094 29.597656 896.902344 32.871094 896.394531 36.117188 C 880.316406 -98.34375 805.679688 -202.566406 704.167969 -215.542969 C 630.933594 -224.898438 559.289062 -184.695312 506.546875 -114.25 C 548.242188 -215.828125 634.796875 -281.484375 725.15625 -269.945312 Z M 725.148438 -269.941406 " fill-opacity="1" fill-rule="evenodd"/></g></g></g></svg>